<?xml version="1.0" encoding="UTF-8" standalone="no"?>
<!DOCTYPE svg PUBLIC "-//W3C//DTD SVG 1.1//EN" "http://www.w3.org/Graphics/SVG/1.1/DTD/svg11.dtd">
<svg width="100%" height="100%" viewBox="0 0 55 55" version="1.1" xmlns="http://www.w3.org/2000/svg" xmlns:xlink="http://www.w3.org/1999/xlink" xml:space="preserve" xmlns:serif="http://www.serif.com/" style="fill-rule:evenodd;clip-rule:evenodd;stroke-linecap:round;stroke-linejoin:round;stroke-miterlimit:1.5;">
    <g transform="matrix(1,0,0,0.853954,-7.10543e-15,5.40365)">
        <g transform="matrix(1,0,0,1,-0.213437,0)">
            <g transform="matrix(1,0,0,1,1.024,0.340425)">
                <path d="M19.713,24.079L19.713,40.365" style="fill:none;stroke:white;stroke-width:3.23px;"/>
            </g>
            <g transform="matrix(1,0,0,1,8.0005,0.340425)">
                <path d="M19.713,24.079L19.713,40.365" style="fill:none;stroke:white;stroke-width:3.23px;"/>
            </g>
            <g transform="matrix(1,0,0,1,14.977,0.340425)">
                <path d="M19.713,24.079L19.713,40.365" style="fill:none;stroke:white;stroke-width:3.23px;"/>
            </g>
        </g>
        <g transform="matrix(1,0,0,0.939299,0,1.01273)">
            <path d="M42.928,16.684C42.93,16.736 42.932,16.789 42.932,16.842L42.932,48.283C42.932,49.987 41.549,51.37 39.845,51.37L15.155,51.37C13.451,51.37 12.068,49.987 12.068,48.283L12.068,16.842C12.068,16.789 12.07,16.736 12.072,16.684L42.928,16.684Z" style="fill:none;stroke:white;stroke-width:4.41px;"/>
        </g>
        <g transform="matrix(1.28513,0,0,1.32899,-7.84095,-2.79431)">
            <path d="M33.953,8.493L21.047,8.493C21.047,4.932 23.938,2.04 27.5,2.04C31.062,2.04 33.953,4.932 33.953,8.493Z" style="fill:none;stroke:white;stroke-width:3.3px;"/>
        </g>
        <g transform="matrix(1,0,0,1,0.414086,0.0199498)">
            <path d="M47.547,9.293C47.547,8.841 47.234,8.474 46.848,8.474L7.324,8.474C6.938,8.474 6.625,8.841 6.625,9.293L6.625,15.845C6.625,16.297 6.938,16.664 7.324,16.664L46.848,16.664C47.234,16.664 47.547,16.297 47.547,15.845L47.547,9.293Z" style="fill:none;stroke:white;stroke-width:4.3px;"/>
        </g>
    </g>
</svg>
